<?xml version="1.0" encoding="UTF-8" standalone="no"?>
<svg width="12" height="12" viewBox="0 0 30 30" version="1.1" xmlns="http://www.w3.org/2000/svg">
  <path
     d="M 14.999995,-3.1591779e-5 C 6.7159965,-3.1591779e-5 0,6.7160273 0,15.000036 0,23.285084 6.7159965,30 14.999995,30 23.285999,30 30,23.285084 30,15.000036 30,6.7160273 23.285999,-3.1591779e-5 14.999995,-3.1591779e-5 l 0,0 z M 10.950002,8.8250902 c 0.955848,0.061313 1.775,0.6393183 2.299995,1.2499538 0.314006,0.364033 0.861999,0.774934 1.875004,0.774934 1.015,0 1.537002,-0.410901 1.85,-0.774934 0.839998,-0.977059 2.436994,-1.8380389 4.124992,-0.7250518 1.982,1.3070058 1.427003,3.6700498 0.850006,4.3500008 L 15.125001,22.950045 8.300002,13.699993 C 7.7229948,13.020042 7.1429947,10.656998 9.1249943,9.3499922 9.7580042,8.9326478 10.376486,8.7883025 10.950002,8.8250902 l 0,0 z"
     fill="#FFFFFF"></path>
</svg>
